<svg width="62" height="62" viewBox="0 0 62 62" fill="none" xmlns="http://www.w3.org/2000/svg">
<circle cx="31" cy="31" r="30" fill="#427EBF" stroke="#213141" stroke-width="2"/>
<mask id="path-2-inside-1_69_86" fill="white">
<path d="M60 31C60 47.0163 47.0163 60 31 60C14.9837 60 2 47.0163 2 31C2 14.9837 14.9837 2 31 2C47.0163 2 60 14.9837 60 31Z"/>
</mask>
<path d="M58 31C58 45.9117 45.9117 58 31 58V62C48.1208 62 62 48.1208 62 31H58ZM31 58C16.0883 58 4 45.9117 4 31H0C0 48.1208 13.8792 62 31 62V58ZM4 31C4 16.0883 16.0883 4 31 4V0C13.8792 0 0 13.8792 0 31H4ZM31 4C45.9117 4 58 16.0883 58 31H62C62 13.8792 48.1208 0 31 0V4Z" fill="white" mask="url(#path-2-inside-1_69_86)"/>
<rect x="21" y="17" width="7" height="27" fill="white" stroke="#1E2C3B" stroke-width="2"/>
<rect x="34" y="17" width="7" height="27" fill="white" stroke="#1E2C3B" stroke-width="2"/>
</svg>
