<svg width="21" height="18" viewBox="0 0 21 18" fill="none" xmlns="http://www.w3.org/2000/svg">
<path fill-rule="evenodd" clip-rule="evenodd" d="M-4.12884e-05 8.85909L13.51 17.5506L13.4877 12.9762L20.5981 17.5506L20.5124 7.62093e-06L13.447 4.66264L13.4243 6.92157e-06L-4.12884e-05 8.85909Z" fill="#427EBF"/>
<mask id="path-2-inside-1_70_90" fill="white">
<path fill-rule="evenodd" clip-rule="evenodd" d="M13.4877 12.9762L20.5981 17.5506L20.5124 7.62093e-06L13.447 4.66264L13.4243 6.92157e-06L-4.31958e-05 8.85909L13.51 17.5506L13.4877 12.9762Z"/>
</mask>
<path d="M20.5981 17.5506L19.5161 19.2326L22.6161 21.2269L22.5981 17.5408L20.5981 17.5506ZM13.4877 12.9762L14.5697 11.2942L11.4697 9.29978L11.4877 12.9859L13.4877 12.9762ZM20.5124 7.62093e-06L22.5124 -0.00976353L22.4943 -3.70418L19.4108 -1.66927L20.5124 7.62093e-06ZM13.447 4.66264L11.4471 4.67241L11.4651 8.36682L14.5486 6.33191L13.447 4.66264ZM13.4243 6.92157e-06L15.4242 -0.00976423L15.4062 -3.70418L12.3227 -1.66927L13.4243 6.92157e-06ZM-4.31958e-05 8.85909L-1.10165 7.18982L-3.66345 8.88043L-1.08213 10.5411L-4.31958e-05 8.85909ZM13.51 17.5506L12.4279 19.2326L15.528 21.2269L15.51 17.5408L13.51 17.5506ZM21.6802 15.8686L14.5697 11.2942L12.4056 14.6581L19.5161 19.2326L21.6802 15.8686ZM18.5124 0.00977877L18.5982 17.5603L22.5981 17.5408L22.5124 -0.00976353L18.5124 0.00977877ZM14.5486 6.33191L21.614 1.66928L19.4108 -1.66927L12.3454 2.99337L14.5486 6.33191ZM11.4243 0.00977807L11.4471 4.67241L15.447 4.65287L15.4242 -0.00976423L11.4243 0.00977807ZM1.10156 10.5284L14.5259 1.66928L12.3227 -1.66927L-1.10165 7.18982L1.10156 10.5284ZM14.5921 15.8686L1.08204 7.1771L-1.08213 10.5411L12.4279 19.2326L14.5921 15.8686ZM11.4877 12.9859L11.51 17.5603L15.51 17.5408L15.4876 12.9664L11.4877 12.9859Z" fill="#1E2C3B" mask="url(#path-2-inside-1_70_90)"/>
</svg>
