<svg width="293" height="62" viewBox="0 0 293 62" fill="none" xmlns="http://www.w3.org/2000/svg">
<path d="M110.07 46.16C110.07 46.7467 109.867 47.2 109.46 47.52C109.06 47.84 108.507 48 107.8 48H104.87H104.85V41.18H107.55C108.257 41.18 108.81 41.34 109.21 41.66C109.617 41.98 109.82 42.4233 109.82 42.99C109.82 43.3433 109.743 43.6467 109.59 43.9C109.437 44.1533 109.217 44.3533 108.93 44.5C109.29 44.64 109.57 44.8467 109.77 45.12C109.97 45.3933 110.07 45.74 110.07 46.16ZM108.78 43.12C108.78 42.84 108.68 42.61 108.48 42.43C108.287 42.25 107.967 42.16 107.52 42.16H105.88V44.08H107.52C107.94 44.08 108.253 43.9933 108.46 43.82C108.673 43.64 108.78 43.4067 108.78 43.12ZM109.03 46.04C109.03 45.7267 108.927 45.4867 108.72 45.32C108.513 45.1467 108.19 45.06 107.75 45.06H105.88V47.02H107.75C108.163 47.02 108.48 46.9367 108.7 46.77C108.92 46.5967 109.03 46.3533 109.03 46.04ZM122.102 47.24C122.262 47.24 122.422 47.2167 122.582 47.17C122.742 47.1167 122.886 47.04 123.012 46.94C123.146 46.84 123.252 46.7133 123.332 46.56C123.412 46.4 123.452 46.2133 123.452 46V45.87C123.232 45.8233 123.029 45.79 122.842 45.77C122.662 45.7433 122.479 45.73 122.292 45.73C121.939 45.73 121.646 45.7833 121.412 45.89C121.186 45.9967 121.072 46.1933 121.072 46.48C121.072 46.6133 121.099 46.73 121.152 46.83C121.212 46.9233 121.289 47 121.382 47.06C121.476 47.12 121.582 47.1667 121.702 47.2C121.829 47.2267 121.962 47.24 122.102 47.24ZM122.262 42.95C123.016 42.95 123.569 43.1333 123.922 43.5C124.276 43.8667 124.452 44.3633 124.452 44.99V48H123.612L123.572 47.41H123.552C123.366 47.63 123.136 47.8067 122.862 47.94C122.589 48.0667 122.272 48.13 121.912 48.13C121.612 48.13 121.349 48.0867 121.122 48C120.896 47.9133 120.702 47.7967 120.542 47.65C120.389 47.4967 120.272 47.32 120.192 47.12C120.112 46.92 120.072 46.7067 120.072 46.48C120.072 45.9533 120.252 45.55 120.612 45.27C120.979 44.9833 121.496 44.84 122.162 44.84C122.376 44.84 122.589 44.85 122.802 44.87C123.022 44.89 123.239 44.9167 123.452 44.95V44.81C123.452 44.1833 123.059 43.87 122.272 43.87C122.012 43.87 121.749 43.9033 121.482 43.97C121.216 44.03 120.952 44.1433 120.692 44.31L120.222 43.48C120.529 43.3267 120.856 43.2 121.202 43.1C121.556 43 121.909 42.95 122.262 42.95ZM137.478 47.17C137.705 47.17 137.912 47.13 138.098 47.05C138.292 46.97 138.455 46.86 138.588 46.72C138.728 46.5733 138.835 46.4 138.908 46.2C138.988 46 139.028 45.78 139.028 45.54C139.028 45.3 138.988 45.08 138.908 44.88C138.835 44.68 138.728 44.51 138.588 44.37C138.455 44.2233 138.292 44.11 138.098 44.03C137.912 43.95 137.705 43.91 137.478 43.91C137.258 43.91 137.052 43.95 136.858 44.03C136.672 44.11 136.508 44.2233 136.368 44.37C136.235 44.51 136.128 44.68 136.048 44.88C135.975 45.08 135.938 45.3 135.938 45.54C135.938 45.78 135.975 46 136.048 46.2C136.128 46.4 136.235 46.5733 136.368 46.72C136.508 46.86 136.672 46.97 136.858 47.05C137.052 47.13 137.258 47.17 137.478 47.17ZM137.618 42.95C137.958 42.95 138.275 43.0167 138.568 43.15C138.868 43.2767 139.125 43.4567 139.338 43.69C139.552 43.9167 139.718 44.19 139.838 44.51C139.965 44.8233 140.028 45.1667 140.028 45.54C140.028 45.9133 139.965 46.26 139.838 46.58C139.718 46.8933 139.552 47.1667 139.338 47.4C139.125 47.6267 138.868 47.8033 138.568 47.93C138.275 48.0567 137.958 48.12 137.618 48.12C137.292 48.12 136.988 48.0633 136.708 47.95C136.428 47.8367 136.182 47.6733 135.968 47.46H135.948V50H134.948V43.08H135.788L135.828 43.74H135.848C136.068 43.4933 136.328 43.3 136.628 43.16C136.928 43.02 137.258 42.95 137.618 42.95ZM151.975 48.13C151.575 48.13 151.255 48.0233 151.015 47.81C150.782 47.59 150.665 47.2433 150.665 46.77V44H149.845V43.08H150.665V41.42H151.665V43.08H153.055V44H151.665V46.63C151.665 46.83 151.699 46.9733 151.765 47.06C151.839 47.1467 151.949 47.19 152.095 47.19C152.215 47.19 152.359 47.18 152.525 47.16C152.692 47.1333 152.852 47.1 153.005 47.06L153.165 47.97C152.979 48.0167 152.779 48.0533 152.565 48.08C152.352 48.1133 152.155 48.13 151.975 48.13ZM163.32 48V43.08H164.32V48H163.32ZM164.41 41.61C164.41 41.45 164.353 41.3133 164.24 41.2C164.133 41.0867 163.993 41.03 163.82 41.03C163.646 41.03 163.506 41.0867 163.4 41.2C163.293 41.3133 163.24 41.45 163.24 41.61C163.24 41.7633 163.293 41.8967 163.4 42.01C163.506 42.1233 163.646 42.18 163.82 42.18C163.993 42.18 164.133 42.1233 164.24 42.01C164.353 41.8967 164.41 41.7633 164.41 41.61ZM176.557 47.22C176.897 47.22 177.14 47.16 177.287 47.04C177.44 46.92 177.517 46.79 177.517 46.65C177.517 46.4767 177.434 46.3333 177.267 46.22C177.107 46.1067 176.81 46 176.377 45.9C175.27 45.64 174.717 45.1233 174.717 44.35C174.717 44.1567 174.757 43.9767 174.837 43.81C174.924 43.6367 175.044 43.49 175.197 43.37C175.357 43.2433 175.55 43.1433 175.777 43.07C176.004 42.9967 176.264 42.96 176.557 42.96C176.937 42.96 177.294 43.01 177.627 43.11C177.967 43.21 178.254 43.34 178.487 43.5L177.927 44.3C177.747 44.1667 177.54 44.06 177.307 43.98C177.074 43.9 176.83 43.86 176.577 43.86C176.29 43.86 176.074 43.91 175.927 44.01C175.787 44.11 175.717 44.2267 175.717 44.36C175.717 44.5333 175.804 44.67 175.977 44.77C176.157 44.8633 176.417 44.95 176.757 45.03C177.084 45.11 177.36 45.2067 177.587 45.32C177.814 45.4267 177.994 45.55 178.127 45.69C178.267 45.83 178.367 45.9833 178.427 46.15C178.487 46.31 178.517 46.48 178.517 46.66C178.517 46.86 178.474 47.05 178.387 47.23C178.307 47.4033 178.184 47.5567 178.017 47.69C177.85 47.8233 177.644 47.93 177.397 48.01C177.157 48.09 176.877 48.13 176.557 48.13C176.384 48.13 176.2 48.1133 176.007 48.08C175.814 48.0467 175.627 48.0033 175.447 47.95C175.267 47.8967 175.1 47.8333 174.947 47.76C174.794 47.68 174.67 47.5933 174.577 47.5L175.137 46.71C175.317 46.8633 175.534 46.9867 175.787 47.08C176.047 47.1733 176.304 47.22 176.557 47.22ZM190.47 48.13C190.07 48.13 189.75 48.0233 189.51 47.81C189.276 47.59 189.16 47.2433 189.16 46.77V44H188.34V43.08H189.16V41.42H190.16V43.08H191.55V44H190.16V46.63C190.16 46.83 190.193 46.9733 190.26 47.06C190.333 47.1467 190.443 47.19 190.59 47.19C190.71 47.19 190.853 47.18 191.02 47.16C191.186 47.1333 191.346 47.1 191.5 47.06L191.66 47.97C191.473 48.0167 191.273 48.0533 191.06 48.08C190.846 48.1133 190.65 48.13 190.47 48.13ZM216.114 48.13C215.621 48.13 215.161 48.0433 214.734 47.87C214.307 47.69 213.937 47.4433 213.624 47.13C213.311 46.8167 213.064 46.4433 212.884 46.01C212.704 45.5767 212.614 45.1033 212.614 44.59C212.614 44.0767 212.704 43.6033 212.884 43.17C213.064 42.7367 213.311 42.3633 213.624 42.05C213.937 41.7367 214.307 41.4933 214.734 41.32C215.161 41.1467 215.621 41.06 216.114 41.06C216.654 41.06 217.151 41.16 217.604 41.36C218.064 41.5533 218.454 41.8367 218.774 42.21L217.994 42.9C217.774 42.6267 217.501 42.4133 217.174 42.26C216.854 42.1067 216.501 42.03 216.114 42.03C215.761 42.03 215.434 42.0933 215.134 42.22C214.834 42.34 214.574 42.5133 214.354 42.74C214.134 42.9667 213.961 43.2367 213.834 43.55C213.707 43.8633 213.644 44.21 213.644 44.59C213.644 44.97 213.707 45.32 213.834 45.64C213.961 45.9533 214.134 46.2233 214.354 46.45C214.574 46.67 214.834 46.8433 215.134 46.97C215.434 47.0967 215.761 47.16 216.114 47.16C216.514 47.16 216.877 47.08 217.204 46.92C217.531 46.7533 217.804 46.53 218.024 46.25L218.814 46.93C218.494 47.31 218.101 47.6067 217.634 47.82C217.167 48.0267 216.661 48.13 216.114 48.13ZM231.721 42.96C231.975 42.96 232.215 43.0033 232.441 43.09C232.675 43.1767 232.878 43.31 233.051 43.49C233.231 43.6633 233.371 43.8867 233.471 44.16C233.578 44.4333 233.631 44.7567 233.631 45.13V48H232.631V45.42C232.631 45.14 232.601 44.9033 232.541 44.71C232.481 44.51 232.398 44.35 232.291 44.23C232.185 44.11 232.058 44.0233 231.911 43.97C231.765 43.9167 231.608 43.89 231.441 43.89C231.235 43.89 231.048 43.9333 230.881 44.02C230.715 44.1 230.571 44.21 230.451 44.35C230.331 44.49 230.238 44.6567 230.171 44.85C230.111 45.0367 230.081 45.2367 230.081 45.45V48H229.081V40.75H230.081V43.6H230.101C230.321 43.3867 230.571 43.2267 230.851 43.12C231.131 43.0133 231.421 42.96 231.721 42.96ZM248.586 43.08V48H247.746L247.706 47.36H247.686C247.459 47.6133 247.193 47.8033 246.886 47.93C246.579 48.0567 246.266 48.12 245.946 48.12C245.693 48.12 245.449 48.0767 245.216 47.99C244.989 47.9033 244.786 47.7733 244.606 47.6C244.433 47.42 244.293 47.1933 244.186 46.92C244.086 46.6467 244.036 46.3233 244.036 45.95V43.08H245.036V45.66C245.036 45.94 245.066 46.18 245.126 46.38C245.186 46.5733 245.269 46.73 245.376 46.85C245.483 46.97 245.606 47.0567 245.746 47.11C245.893 47.1633 246.053 47.19 246.226 47.19C246.433 47.19 246.619 47.15 246.786 47.07C246.953 46.9833 247.096 46.87 247.216 46.73C247.336 46.59 247.426 46.4267 247.486 46.24C247.553 46.0467 247.586 45.8433 247.586 45.63V43.08H248.586ZM261.431 42.96C261.551 42.96 261.671 42.97 261.791 42.99C261.911 43.01 262.017 43.0333 262.111 43.06L261.911 44.1C261.797 44.0667 261.671 44.0333 261.531 44C261.391 43.96 261.257 43.94 261.131 43.94C260.811 43.94 260.574 44.0833 260.421 44.37C260.267 44.65 260.191 45.03 260.191 45.51V48H259.191V43.08H260.031L260.081 43.76H260.101C260.401 43.2267 260.844 42.96 261.431 42.96ZM274.347 47.17C274.607 47.17 274.837 47.12 275.037 47.02C275.243 46.92 275.413 46.78 275.547 46.6L276.277 47.27C276.043 47.5433 275.763 47.7533 275.437 47.9C275.11 48.0467 274.747 48.12 274.347 48.12C273.987 48.12 273.65 48.0567 273.337 47.93C273.03 47.8033 272.763 47.6267 272.537 47.4C272.31 47.1667 272.13 46.8933 271.997 46.58C271.87 46.26 271.807 45.9133 271.807 45.54C271.807 45.1667 271.87 44.8233 271.997 44.51C272.13 44.19 272.31 43.9167 272.537 43.69C272.763 43.4567 273.03 43.2767 273.337 43.15C273.65 43.0233 273.987 42.96 274.347 42.96C274.74 42.96 275.097 43.0333 275.417 43.18C275.743 43.3267 276.023 43.53 276.257 43.79L275.537 44.47C275.403 44.29 275.233 44.15 275.027 44.05C274.827 43.95 274.6 43.9 274.347 43.9C274.127 43.9 273.92 43.94 273.727 44.02C273.54 44.1 273.377 44.2133 273.237 44.36C273.103 44.5 272.997 44.6733 272.917 44.88C272.843 45.08 272.807 45.3 272.807 45.54C272.807 45.78 272.843 46 272.917 46.2C272.997 46.4 273.103 46.5733 273.237 46.72C273.377 46.86 273.54 46.97 273.727 47.05C273.92 47.13 274.127 47.17 274.347 47.17ZM289.167 42.96C289.42 42.96 289.66 43.0033 289.887 43.09C290.12 43.1767 290.323 43.31 290.497 43.49C290.677 43.6633 290.817 43.8867 290.917 44.16C291.023 44.4333 291.077 44.7567 291.077 45.13V48H290.077V45.42C290.077 45.14 290.047 44.9033 289.987 44.71C289.927 44.51 289.843 44.35 289.737 44.23C289.63 44.11 289.503 44.0233 289.357 43.97C289.21 43.9167 289.053 43.89 288.887 43.89C288.68 43.89 288.493 43.9333 288.327 44.02C288.16 44.1 288.017 44.21 287.897 44.35C287.777 44.49 287.683 44.6567 287.617 44.85C287.557 45.0367 287.527 45.2367 287.527 45.45V48H286.527V40.75H287.527V43.6H287.547C287.767 43.3867 288.017 43.2267 288.297 43.12C288.577 43.0133 288.867 42.96 289.167 42.96Z" fill="black"/>
<path d="M115.864 31.416C114.264 31.416 112.771 31.128 111.384 30.552C109.997 29.976 108.792 29.1867 107.768 28.184C106.765 27.1813 105.976 25.9867 105.4 24.6C104.824 23.2133 104.536 21.7093 104.536 20.088C104.536 18.4667 104.824 16.9733 105.4 15.608C105.976 14.2213 106.765 13.0267 107.768 12.024C108.792 11 109.997 10.2107 111.384 9.656C112.771 9.08 114.264 8.792 115.864 8.792C117.592 8.792 119.192 9.10133 120.664 9.72C122.157 10.3387 123.427 11.224 124.472 12.376L120.888 15.576C120.291 14.872 119.565 14.3173 118.712 13.912C117.859 13.4853 116.909 13.272 115.864 13.272C114.904 13.272 114.019 13.4427 113.208 13.784C112.419 14.104 111.725 14.5733 111.128 15.192C110.552 15.7893 110.093 16.504 109.752 17.336C109.432 18.168 109.272 19.0853 109.272 20.088C109.272 21.0907 109.432 22.008 109.752 22.84C110.093 23.672 110.552 24.3973 111.128 25.016C111.725 25.6133 112.419 26.0827 113.208 26.424C114.019 26.744 114.904 26.904 115.864 26.904C116.931 26.904 117.891 26.6907 118.744 26.264C119.619 25.8373 120.365 25.2507 120.984 24.504L124.6 27.672C123.533 28.8667 122.253 29.7947 120.76 30.456C119.267 31.096 117.635 31.416 115.864 31.416ZM144.946 15.224C144.519 16.504 144.092 17.7733 143.666 19.032C143.26 20.2907 142.812 21.5493 142.322 22.808H147.666C147.175 21.5493 146.716 20.2907 146.29 19.032C145.863 17.7733 145.436 16.504 145.01 15.224H144.946ZM149.49 27.192H140.466L138.866 31H133.618L142.994 9.176H146.962L156.338 31H151.09L149.49 27.192ZM171.329 18.68H176.609C177.569 18.68 178.305 18.456 178.817 18.008C179.329 17.56 179.585 16.9413 179.585 16.152C179.585 15.384 179.329 14.776 178.817 14.328C178.305 13.88 177.569 13.656 176.609 13.656H171.329V18.68ZM171.329 23.16V31H166.593V9.176H176.545C177.761 9.176 178.849 9.34667 179.809 9.688C180.79 10.008 181.611 10.4773 182.273 11.096C182.955 11.6933 183.467 12.4293 183.809 13.304C184.171 14.1573 184.353 15.1067 184.353 16.152C184.353 17.688 183.99 19.0107 183.265 20.12C182.561 21.208 181.537 22.008 180.193 22.52L185.025 31H179.457L175.425 23.16H171.329ZM200.814 18.68H206.094C207.054 18.68 207.79 18.456 208.302 18.008C208.814 17.56 209.07 16.9413 209.07 16.152C209.07 15.384 208.814 14.776 208.302 14.328C207.79 13.88 207.054 13.656 206.094 13.656H200.814V18.68ZM200.814 23.16V31H196.078V9.176H206.03C207.246 9.176 208.334 9.34667 209.294 9.688C210.275 10.008 211.096 10.4773 211.758 11.096C212.44 11.6933 212.952 12.4293 213.294 13.304C213.656 14.1573 213.838 15.1067 213.838 16.152C213.838 17.688 213.475 19.0107 212.75 20.12C212.046 21.208 211.022 22.008 209.678 22.52L214.51 31H208.942L204.91 23.16H200.814ZM225.563 31V9.176H230.299V31H225.563ZM253.07 31.416C251.47 31.416 249.977 31.128 248.59 30.552C247.204 29.976 245.998 29.1867 244.974 28.184C243.972 27.1813 243.182 25.9867 242.606 24.6C242.03 23.2133 241.742 21.7093 241.742 20.088C241.742 18.4667 242.03 16.9733 242.606 15.608C243.182 14.2213 243.972 13.0267 244.974 12.024C245.998 11 247.204 10.2107 248.59 9.656C249.977 9.08 251.47 8.792 253.07 8.792C254.798 8.792 256.398 9.10133 257.87 9.72C259.364 10.3387 260.633 11.224 261.678 12.376L258.094 15.576C257.497 14.872 256.772 14.3173 255.918 13.912C255.065 13.4853 254.116 13.272 253.07 13.272C252.11 13.272 251.225 13.4427 250.414 13.784C249.625 14.104 248.932 14.5733 248.334 15.192C247.758 15.7893 247.3 16.504 246.958 17.336C246.638 18.168 246.478 19.0853 246.478 20.088C246.478 21.0907 246.638 22.008 246.958 22.84C247.3 23.672 247.758 24.3973 248.334 25.016C248.932 25.6133 249.625 26.0827 250.414 26.424C251.225 26.744 252.11 26.904 253.07 26.904C254.137 26.904 255.097 26.6907 255.95 26.264C256.825 25.8373 257.572 25.2507 258.19 24.504L261.806 27.672C260.74 28.8667 259.46 29.7947 257.966 30.456C256.473 31.096 254.841 31.416 253.07 31.416ZM277.8 31H273.064V9.176H277.8V17.976H277.864L285.608 9.176H291.656L282.632 19.032L292.008 31H285.992L279.272 21.88L277.8 23.128V31Z" fill="black"/>
<path fill-rule="evenodd" clip-rule="evenodd" d="M0 2H97V48H83V34.5V34H82.9909C82.7279 26.7758 76.7884 21 69.5 21C62.2116 21 56.2721 26.7758 56.0091 34H56V34.5V48H41V34.5V34H40.9909C40.7279 26.7758 34.7884 21 27.5 21C20.2116 21 14.2721 26.7758 14.0091 34H14V34.5V48H0V2Z" fill="black"/>
<path d="M9 59C11.2936 59.3058 14.4288 58.6297 18.4057 55.0412C19.0686 54.443 20.0421 54.3036 20.8269 54.7295C28.376 58.8267 30.3171 58.7795 38.0573 54.9681C38.6468 54.6778 39.344 54.6895 39.9201 55.0057C48.6668 59.8066 49.2516 59.8313 57.0505 55.0797C57.6394 54.7209 58.3769 54.6888 58.994 54.9966C67.617 59.2975 68.2816 59.3341 76.3463 55.1064C77.045 54.7402 77.9008 54.8208 78.535 55.2898C84.7032 59.8505 86.5767 58.5 88 58.5" stroke="black" stroke-width="5" stroke-linecap="round"/>
</svg>
